<mxfile host="app.diagrams.net" modified="2023-05-30T11:00:03.866Z" agent="Mozilla/5.0 (Windows NT 10.0; Win64; x64) AppleWebKit/537.36 (KHTML, like Gecko) Chrome/113.0.0.0 Safari/537.36" etag="nk7Nd2O0VhxtuOhBwHzs" version="21.3.5" type="device">
  <diagram name="Страница 1" id="K5reiFL3MCxRwfRD6Hyk">
    <mxGraphModel dx="1067" dy="745" grid="0" gridSize="10" guides="1" tooltips="1" connect="1" arrows="1" fold="1" page="1" pageScale="1" pageWidth="827" pageHeight="1169" background="#ffffff" math="0" shadow="0">
      <root>
        <mxCell id="0" />
        <mxCell id="1" parent="0" />
        <mxCell id="HR23Je1_P6Xe3s5GHxb0-7" style="edgeStyle=orthogonalEdgeStyle;rounded=0;orthogonalLoop=1;jettySize=auto;html=1;exitX=0.5;exitY=1;exitDx=0;exitDy=0;entryX=0.5;entryY=0;entryDx=0;entryDy=0;fillColor=#60a917;strokeColor=#2D7600;" edge="1" parent="1" source="HR23Je1_P6Xe3s5GHxb0-1" target="HR23Je1_P6Xe3s5GHxb0-3">
          <mxGeometry relative="1" as="geometry" />
        </mxCell>
        <mxCell id="HR23Je1_P6Xe3s5GHxb0-9" style="edgeStyle=orthogonalEdgeStyle;rounded=0;orthogonalLoop=1;jettySize=auto;html=1;exitX=0.75;exitY=1;exitDx=0;exitDy=0;entryX=0.5;entryY=0;entryDx=0;entryDy=0;fillColor=#60a917;strokeColor=#2D7600;" edge="1" parent="1" source="HR23Je1_P6Xe3s5GHxb0-1" target="HR23Je1_P6Xe3s5GHxb0-4">
          <mxGeometry relative="1" as="geometry">
            <mxPoint x="480" y="100" as="targetPoint" />
            <Array as="points">
              <mxPoint x="208" y="115" />
              <mxPoint x="260" y="115" />
            </Array>
          </mxGeometry>
        </mxCell>
        <mxCell id="HR23Je1_P6Xe3s5GHxb0-11" style="edgeStyle=orthogonalEdgeStyle;rounded=0;orthogonalLoop=1;jettySize=auto;html=1;exitX=0.25;exitY=1;exitDx=0;exitDy=0;entryX=0.5;entryY=0;entryDx=0;entryDy=0;fillColor=#60a917;strokeColor=#2D7600;" edge="1" parent="1" source="HR23Je1_P6Xe3s5GHxb0-1" target="HR23Je1_P6Xe3s5GHxb0-5">
          <mxGeometry relative="1" as="geometry">
            <Array as="points">
              <mxPoint x="143" y="115" />
              <mxPoint x="90" y="115" />
            </Array>
          </mxGeometry>
        </mxCell>
        <mxCell id="HR23Je1_P6Xe3s5GHxb0-1" value="&lt;font style=&quot;font-size: 14px;&quot;&gt;Пользователь&lt;br&gt;Клуб&lt;/font&gt;" style="rounded=0;whiteSpace=wrap;html=1;strokeColor=#0000CC;fillColor=#f5f5f5;fontColor=#333333;strokeWidth=3;" vertex="1" parent="1">
          <mxGeometry x="110" y="40" width="130" height="60" as="geometry" />
        </mxCell>
        <mxCell id="HR23Je1_P6Xe3s5GHxb0-2" value="&lt;font style=&quot;font-size: 14px;&quot;&gt;Пользователь&lt;br&gt;Скаут&lt;/font&gt;" style="rounded=0;whiteSpace=wrap;html=1;fillColor=#f5f5f5;fontColor=#333333;strokeColor=#0000CC;strokeWidth=3;" vertex="1" parent="1">
          <mxGeometry x="580" y="30" width="120" height="60" as="geometry" />
        </mxCell>
        <mxCell id="HR23Je1_P6Xe3s5GHxb0-3" value="&lt;font style=&quot;font-size: 15px;&quot;&gt;Добавить игрока&lt;/font&gt;" style="rounded=1;whiteSpace=wrap;html=1;fillColor=#f5f5f5;fontColor=#333333;strokeColor=#000000;strokeWidth=3;" vertex="1" parent="1">
          <mxGeometry x="110" y="232" width="130" height="80" as="geometry" />
        </mxCell>
        <mxCell id="HR23Je1_P6Xe3s5GHxb0-4" value="Изменить информацию, физическое состояние, трансферный статус игрока" style="rounded=1;whiteSpace=wrap;html=1;fillColor=#f5f5f5;fontColor=#333333;strokeColor=#000000;strokeWidth=3;" vertex="1" parent="1">
          <mxGeometry x="190" y="135" width="140" height="80" as="geometry" />
        </mxCell>
        <mxCell id="HR23Je1_P6Xe3s5GHxb0-5" value="&lt;font style=&quot;font-size: 14px;&quot;&gt;Удалить игрока&lt;/font&gt;" style="rounded=1;whiteSpace=wrap;html=1;fillColor=#f5f5f5;fontColor=#333333;strokeColor=#000000;strokeWidth=3;" vertex="1" parent="1">
          <mxGeometry x="19" y="135" width="140" height="80" as="geometry" />
        </mxCell>
        <mxCell id="HR23Je1_P6Xe3s5GHxb0-13" value="&lt;font style=&quot;font-size: 17px;&quot;&gt;Сервер&lt;/font&gt;" style="whiteSpace=wrap;html=1;aspect=fixed;fillColor=#f5f5f5;fontColor=#333333;strokeColor=#000000;strokeWidth=3;" vertex="1" parent="1">
          <mxGeometry x="346" y="498" width="120" height="120" as="geometry" />
        </mxCell>
        <mxCell id="HR23Je1_P6Xe3s5GHxb0-14" value="" style="endArrow=classic;html=1;rounded=0;exitX=0.75;exitY=1;exitDx=0;exitDy=0;entryX=0.25;entryY=0;entryDx=0;entryDy=0;fillColor=#60a917;strokeColor=#2D7600;" edge="1" parent="1" source="HR23Je1_P6Xe3s5GHxb0-4" target="HR23Je1_P6Xe3s5GHxb0-13">
          <mxGeometry width="50" height="50" relative="1" as="geometry">
            <mxPoint x="380" y="490" as="sourcePoint" />
            <mxPoint x="430" y="440" as="targetPoint" />
            <Array as="points">
              <mxPoint x="295" y="414" />
            </Array>
          </mxGeometry>
        </mxCell>
        <mxCell id="HR23Je1_P6Xe3s5GHxb0-15" value="" style="endArrow=classic;html=1;rounded=0;entryX=0;entryY=0.25;entryDx=0;entryDy=0;fillColor=#60a917;strokeColor=#2D7600;exitX=0.5;exitY=1;exitDx=0;exitDy=0;" edge="1" parent="1" source="HR23Je1_P6Xe3s5GHxb0-17" target="HR23Je1_P6Xe3s5GHxb0-13">
          <mxGeometry width="50" height="50" relative="1" as="geometry">
            <mxPoint x="294" y="480" as="sourcePoint" />
            <mxPoint x="430" y="440" as="targetPoint" />
          </mxGeometry>
        </mxCell>
        <mxCell id="HR23Je1_P6Xe3s5GHxb0-16" value="" style="endArrow=classic;html=1;rounded=0;exitX=0.25;exitY=1;exitDx=0;exitDy=0;entryX=-0.025;entryY=0.667;entryDx=0;entryDy=0;entryPerimeter=0;fillColor=#60a917;strokeColor=#2D7600;" edge="1" parent="1" source="HR23Je1_P6Xe3s5GHxb0-5" target="HR23Je1_P6Xe3s5GHxb0-13">
          <mxGeometry width="50" height="50" relative="1" as="geometry">
            <mxPoint x="380" y="490" as="sourcePoint" />
            <mxPoint x="430" y="440" as="targetPoint" />
            <Array as="points">
              <mxPoint x="54" y="447" />
            </Array>
          </mxGeometry>
        </mxCell>
        <mxCell id="HR23Je1_P6Xe3s5GHxb0-17" value="Заполнить карточку игрока (вся информация, фотография)" style="rounded=1;whiteSpace=wrap;html=1;fillColor=#f5f5f5;fontColor=#333333;strokeColor=#000000;strokeWidth=3;" vertex="1" parent="1">
          <mxGeometry x="110" y="356" width="134" height="75" as="geometry" />
        </mxCell>
        <mxCell id="HR23Je1_P6Xe3s5GHxb0-18" value="" style="endArrow=classic;html=1;rounded=0;entryX=0.5;entryY=0;entryDx=0;entryDy=0;exitX=0.5;exitY=1;exitDx=0;exitDy=0;fillColor=#60a917;strokeColor=#2D7600;strokeWidth=1;" edge="1" parent="1" source="HR23Je1_P6Xe3s5GHxb0-3" target="HR23Je1_P6Xe3s5GHxb0-17">
          <mxGeometry width="50" height="50" relative="1" as="geometry">
            <mxPoint x="428" y="370" as="sourcePoint" />
            <mxPoint x="478" y="320" as="targetPoint" />
          </mxGeometry>
        </mxCell>
        <mxCell id="HR23Je1_P6Xe3s5GHxb0-19" value="&lt;font style=&quot;font-size: 15px;&quot;&gt;Искать&amp;nbsp;игрока&lt;/font&gt;" style="rounded=1;whiteSpace=wrap;html=1;fillColor=#f5f5f5;fontColor=#333333;strokeColor=#000000;strokeWidth=3;" vertex="1" parent="1">
          <mxGeometry x="565.5" y="135" width="149" height="75" as="geometry" />
        </mxCell>
        <mxCell id="HR23Je1_P6Xe3s5GHxb0-20" value="&lt;font style=&quot;font-size: 13px;&quot;&gt;Ввести ограничения для поиска подходящих кандидатов&lt;/font&gt;" style="rounded=1;whiteSpace=wrap;html=1;fillColor=#f5f5f5;fontColor=#333333;strokeColor=#000000;strokeWidth=3;" vertex="1" parent="1">
          <mxGeometry x="565.5" y="236" width="150" height="76" as="geometry" />
        </mxCell>
        <mxCell id="HR23Je1_P6Xe3s5GHxb0-21" value="&lt;font style=&quot;font-size: 13px;&quot;&gt;Добавление подходящий игроков в закладки&lt;/font&gt;" style="rounded=1;whiteSpace=wrap;html=1;fillColor=#f5f5f5;fontColor=#333333;strokeColor=#000000;strokeWidth=3;" vertex="1" parent="1">
          <mxGeometry x="464" y="354" width="149" height="75" as="geometry" />
        </mxCell>
        <mxCell id="HR23Je1_P6Xe3s5GHxb0-22" value="Изменение информации о себе &lt;br&gt;(и клуб, и скаут)" style="rounded=1;whiteSpace=wrap;html=1;fillColor=#f5f5f5;fontColor=#333333;strokeColor=#000000;strokeWidth=3;" vertex="1" parent="1">
          <mxGeometry x="346" y="18" width="135" height="72" as="geometry" />
        </mxCell>
        <mxCell id="HR23Je1_P6Xe3s5GHxb0-24" value="" style="endArrow=classic;html=1;rounded=0;entryX=0.5;entryY=0;entryDx=0;entryDy=0;exitX=0.5;exitY=1;exitDx=0;exitDy=0;edgeStyle=orthogonalEdgeStyle;fillColor=#60a917;strokeColor=#2D7600;strokeWidth=1;" edge="1" parent="1" source="HR23Je1_P6Xe3s5GHxb0-2" target="HR23Je1_P6Xe3s5GHxb0-19">
          <mxGeometry width="50" height="50" relative="1" as="geometry">
            <mxPoint x="428" y="359" as="sourcePoint" />
            <mxPoint x="478" y="309" as="targetPoint" />
          </mxGeometry>
        </mxCell>
        <mxCell id="HR23Je1_P6Xe3s5GHxb0-25" value="" style="endArrow=classic;html=1;rounded=0;entryX=0.5;entryY=0;entryDx=0;entryDy=0;exitX=0.5;exitY=1;exitDx=0;exitDy=0;fillColor=#60a917;strokeColor=#2D7600;" edge="1" parent="1" source="HR23Je1_P6Xe3s5GHxb0-19" target="HR23Je1_P6Xe3s5GHxb0-20">
          <mxGeometry width="50" height="50" relative="1" as="geometry">
            <mxPoint x="428" y="359" as="sourcePoint" />
            <mxPoint x="478" y="309" as="targetPoint" />
          </mxGeometry>
        </mxCell>
        <mxCell id="HR23Je1_P6Xe3s5GHxb0-27" value="" style="endArrow=classic;html=1;rounded=0;entryX=0;entryY=0.5;entryDx=0;entryDy=0;exitX=1;exitY=0.5;exitDx=0;exitDy=0;fillColor=#60a917;strokeColor=#2D7600;" edge="1" parent="1" source="HR23Je1_P6Xe3s5GHxb0-1" target="HR23Je1_P6Xe3s5GHxb0-22">
          <mxGeometry width="50" height="50" relative="1" as="geometry">
            <mxPoint x="428" y="359" as="sourcePoint" />
            <mxPoint x="478" y="309" as="targetPoint" />
          </mxGeometry>
        </mxCell>
        <mxCell id="HR23Je1_P6Xe3s5GHxb0-29" value="" style="endArrow=classic;html=1;rounded=0;entryX=1;entryY=0.5;entryDx=0;entryDy=0;exitX=0;exitY=0.5;exitDx=0;exitDy=0;fillColor=#60a917;strokeColor=#2D7600;" edge="1" parent="1" source="HR23Je1_P6Xe3s5GHxb0-2" target="HR23Je1_P6Xe3s5GHxb0-22">
          <mxGeometry width="50" height="50" relative="1" as="geometry">
            <mxPoint x="428" y="359" as="sourcePoint" />
            <mxPoint x="478" y="309" as="targetPoint" />
          </mxGeometry>
        </mxCell>
        <mxCell id="HR23Je1_P6Xe3s5GHxb0-30" value="" style="endArrow=classic;html=1;rounded=0;entryX=0.5;entryY=0;entryDx=0;entryDy=0;exitX=0.5;exitY=1;exitDx=0;exitDy=0;fillColor=#60a917;strokeColor=#2D7600;" edge="1" parent="1" source="HR23Je1_P6Xe3s5GHxb0-20" target="HR23Je1_P6Xe3s5GHxb0-21">
          <mxGeometry width="50" height="50" relative="1" as="geometry">
            <mxPoint x="428" y="359" as="sourcePoint" />
            <mxPoint x="478" y="309" as="targetPoint" />
          </mxGeometry>
        </mxCell>
        <mxCell id="HR23Je1_P6Xe3s5GHxb0-32" value="&lt;font style=&quot;font-size: 14px;&quot;&gt;Запрос контактной информации игрока&lt;/font&gt;" style="rounded=1;whiteSpace=wrap;html=1;fillColor=#f5f5f5;fontColor=#333333;strokeColor=#000000;strokeWidth=3;" vertex="1" parent="1">
          <mxGeometry x="548" y="470" width="143" height="74" as="geometry" />
        </mxCell>
        <mxCell id="HR23Je1_P6Xe3s5GHxb0-33" value="" style="endArrow=classic;html=1;rounded=0;entryX=0.5;entryY=0;entryDx=0;entryDy=0;exitX=0.5;exitY=1;exitDx=0;exitDy=0;fillColor=#60a917;strokeColor=#2D7600;" edge="1" parent="1" source="HR23Je1_P6Xe3s5GHxb0-21" target="HR23Je1_P6Xe3s5GHxb0-32">
          <mxGeometry width="50" height="50" relative="1" as="geometry">
            <mxPoint x="428" y="347" as="sourcePoint" />
            <mxPoint x="478" y="297" as="targetPoint" />
          </mxGeometry>
        </mxCell>
        <mxCell id="HR23Je1_P6Xe3s5GHxb0-34" value="" style="endArrow=classic;html=1;rounded=0;entryX=1;entryY=0.5;entryDx=0;entryDy=0;exitX=0;exitY=0.75;exitDx=0;exitDy=0;fillColor=#60a917;strokeColor=#2D7600;" edge="1" parent="1" source="HR23Je1_P6Xe3s5GHxb0-32" target="HR23Je1_P6Xe3s5GHxb0-13">
          <mxGeometry width="50" height="50" relative="1" as="geometry">
            <mxPoint x="428" y="347" as="sourcePoint" />
            <mxPoint x="478" y="297" as="targetPoint" />
          </mxGeometry>
        </mxCell>
        <mxCell id="HR23Je1_P6Xe3s5GHxb0-38" value="&lt;font style=&quot;font-size: 13px;&quot;&gt;Удаление игроков из закладок&amp;nbsp;&lt;/font&gt;" style="rounded=1;whiteSpace=wrap;html=1;fillColor=#f5f5f5;fontColor=#333333;strokeColor=#000000;strokeWidth=3;" vertex="1" parent="1">
          <mxGeometry x="659" y="354" width="149" height="75" as="geometry" />
        </mxCell>
        <mxCell id="HR23Je1_P6Xe3s5GHxb0-39" value="" style="endArrow=classic;html=1;rounded=0;entryX=0;entryY=0.5;entryDx=0;entryDy=0;exitX=1;exitY=0.5;exitDx=0;exitDy=0;fillColor=#60a917;strokeColor=#2D7600;" edge="1" parent="1" source="HR23Je1_P6Xe3s5GHxb0-21" target="HR23Je1_P6Xe3s5GHxb0-38">
          <mxGeometry width="50" height="50" relative="1" as="geometry">
            <mxPoint x="428" y="347" as="sourcePoint" />
            <mxPoint x="478" y="297" as="targetPoint" />
          </mxGeometry>
        </mxCell>
        <mxCell id="HR23Je1_P6Xe3s5GHxb0-40" value="" style="endArrow=classic;html=1;rounded=0;entryX=1;entryY=0.75;entryDx=0;entryDy=0;exitX=0.5;exitY=1;exitDx=0;exitDy=0;edgeStyle=orthogonalEdgeStyle;fillColor=#60a917;strokeColor=#2D7600;" edge="1" parent="1" source="HR23Je1_P6Xe3s5GHxb0-38" target="HR23Je1_P6Xe3s5GHxb0-13">
          <mxGeometry width="50" height="50" relative="1" as="geometry">
            <mxPoint x="688" y="626" as="sourcePoint" />
            <mxPoint x="738" y="576" as="targetPoint" />
          </mxGeometry>
        </mxCell>
        <mxCell id="HR23Je1_P6Xe3s5GHxb0-41" value="&lt;font style=&quot;font-size: 15px;&quot;&gt;БД &lt;br&gt;с пользователями&lt;/font&gt;" style="shape=cylinder3;whiteSpace=wrap;html=1;boundedLbl=1;backgroundOutline=1;size=15;fillColor=#f5f5f5;fontColor=#333333;strokeColor=#000000;strokeWidth=3;" vertex="1" parent="1">
          <mxGeometry x="277" y="643.5" width="125" height="129.5" as="geometry" />
        </mxCell>
        <mxCell id="HR23Je1_P6Xe3s5GHxb0-42" value="&lt;span style=&quot;font-size: 15px;&quot;&gt;БД с игроками&amp;nbsp;&lt;/span&gt;" style="shape=cylinder3;whiteSpace=wrap;html=1;boundedLbl=1;backgroundOutline=1;size=15;fillColor=#f5f5f5;fontColor=#333333;strokeColor=#000000;strokeWidth=3;" vertex="1" parent="1">
          <mxGeometry x="414" y="643.5" width="126" height="129" as="geometry" />
        </mxCell>
        <mxCell id="HR23Je1_P6Xe3s5GHxb0-43" value="" style="endArrow=classic;startArrow=classic;html=1;rounded=0;exitX=0.5;exitY=0;exitDx=0;exitDy=0;exitPerimeter=0;entryX=0.25;entryY=1;entryDx=0;entryDy=0;fillColor=#60a917;strokeColor=#2D7600;" edge="1" parent="1" source="HR23Je1_P6Xe3s5GHxb0-41" target="HR23Je1_P6Xe3s5GHxb0-13">
          <mxGeometry width="50" height="50" relative="1" as="geometry">
            <mxPoint x="428" y="552" as="sourcePoint" />
            <mxPoint x="478" y="502" as="targetPoint" />
          </mxGeometry>
        </mxCell>
        <mxCell id="HR23Je1_P6Xe3s5GHxb0-44" value="" style="endArrow=classic;startArrow=classic;html=1;rounded=0;exitX=0.5;exitY=0;exitDx=0;exitDy=0;exitPerimeter=0;entryX=0.75;entryY=1;entryDx=0;entryDy=0;fillColor=#60a917;strokeColor=#2D7600;" edge="1" parent="1" source="HR23Je1_P6Xe3s5GHxb0-42" target="HR23Je1_P6Xe3s5GHxb0-13">
          <mxGeometry width="50" height="50" relative="1" as="geometry">
            <mxPoint x="428" y="552" as="sourcePoint" />
            <mxPoint x="478" y="502" as="targetPoint" />
          </mxGeometry>
        </mxCell>
        <mxCell id="HR23Je1_P6Xe3s5GHxb0-46" value="&lt;font style=&quot;font-size: 13px;&quot;&gt;Оплата подписки, для пользованием приложения&lt;/font&gt;" style="rounded=1;whiteSpace=wrap;html=1;fillColor=#f5f5f5;fontColor=#333333;strokeColor=#000000;strokeWidth=3;" vertex="1" parent="1">
          <mxGeometry x="375" y="125" width="135" height="72" as="geometry" />
        </mxCell>
        <mxCell id="HR23Je1_P6Xe3s5GHxb0-47" value="" style="endArrow=classic;html=1;rounded=0;entryX=1;entryY=0.5;entryDx=0;entryDy=0;exitX=0;exitY=1;exitDx=0;exitDy=0;fillColor=#60a917;strokeColor=#2D7600;" edge="1" parent="1" source="HR23Je1_P6Xe3s5GHxb0-2" target="HR23Je1_P6Xe3s5GHxb0-46">
          <mxGeometry width="50" height="50" relative="1" as="geometry">
            <mxPoint x="397" y="293" as="sourcePoint" />
            <mxPoint x="447" y="243" as="targetPoint" />
          </mxGeometry>
        </mxCell>
        <mxCell id="HR23Je1_P6Xe3s5GHxb0-48" value="" style="endArrow=classic;html=1;rounded=0;entryX=0.75;entryY=0;entryDx=0;entryDy=0;exitX=0.5;exitY=1;exitDx=0;exitDy=0;fillColor=#60a917;strokeColor=#2D7600;" edge="1" parent="1" source="HR23Je1_P6Xe3s5GHxb0-46" target="HR23Je1_P6Xe3s5GHxb0-13">
          <mxGeometry width="50" height="50" relative="1" as="geometry">
            <mxPoint x="397" y="320" as="sourcePoint" />
            <mxPoint x="447" y="270" as="targetPoint" />
          </mxGeometry>
        </mxCell>
      </root>
    </mxGraphModel>
  </diagram>
</mxfile>
